<svg width="77" height="160" viewBox="0 0 77 160" fill="none" xmlns="http://www.w3.org/2000/svg">
<path d="M27.9578 68.4204C27.9303 68.4683 27.9673 68.5159 28.041 68.5154C28.1239 68.5148 28.1881 68.4667 28.1879 68.4189C28.1877 68.3616 28.1508 68.3236 28.1047 68.3239C28.0495 68.3242 27.9852 68.3629 27.9578 68.4204Z" fill="#E5E5E5"/>
<path d="M44.3031 54.2091C44.3463 54.2091 44.3952 54.6431 44.4292 55.3982C44.4669 56.1391 44.5603 57.0718 44.6441 57.4655C44.737 57.8592 44.8394 58.4547 44.886 58.7813C44.9418 59.1077 45.0627 59.6067 45.1648 59.8847C45.2669 60.1626 45.3505 60.4504 45.3505 60.5177C45.3506 60.5849 45.4527 60.8724 45.5733 61.1405C45.8702 61.8301 45.9259 62.041 45.824 62.109C45.8004 62.1245 45.7737 62.1319 45.7447 62.1319C45.5915 62.1319 45.373 61.9247 45.1937 61.5949C45.0824 61.4036 44.8506 61.1651 44.6746 61.0896L44.3595 60.9382L44.2738 58.0744C44.1783 54.7552 44.1874 54.4567 44.2892 54.2247C44.2937 54.2142 44.2984 54.2091 44.3031 54.2091ZM28.1052 68.3238C28.151 68.3238 28.1877 68.3618 28.1879 68.4189C28.1881 68.4667 28.1239 68.5148 28.041 68.5154H28.0399C27.967 68.5154 27.9305 68.4681 27.9578 68.4204C27.9852 68.3628 28.0495 68.3242 28.1047 68.3238H28.1052ZM14.2939 53.0869C14.3695 53.0869 14.4141 53.143 14.4855 53.2773C14.5507 53.4111 14.6726 53.7841 14.7389 54.1C14.8145 54.4254 14.9273 54.8368 15.002 55.0183C15.0675 55.1999 15.2362 55.7353 15.3771 56.2134C15.5178 56.6818 15.724 57.3316 15.827 57.6469C15.93 57.9622 16.0707 58.44 16.1459 58.7171C16.221 58.9846 16.3613 59.3952 16.4638 59.6242C16.5661 59.8436 16.6504 60.1109 16.651 60.2066C16.6515 60.2928 16.7357 60.5505 16.8381 60.7794C16.9313 60.9988 17.0804 61.3517 17.1551 61.5617C17.2298 61.7716 17.4166 62.3059 17.5753 62.7447C17.7341 63.193 17.9017 63.5934 17.9571 63.6504C18.0034 63.6979 18.05 63.8218 18.0505 63.9174C18.0514 64.0704 18.1445 64.2991 18.6468 65.4234C18.7305 65.6044 18.842 65.8425 18.9069 65.9472C18.9718 66.0518 19.1479 66.3468 19.3055 66.6132C19.4539 66.8701 19.7594 67.3266 19.9815 67.6308C20.2867 68.0299 20.3704 68.2203 20.3252 68.3638C20.2982 68.4785 20.2344 68.5648 20.1977 68.5651C20.1517 68.5654 19.9884 68.9387 19.8255 69.3883C19.6627 69.8473 19.4719 70.2301 19.3803 70.2688C19.2979 70.298 19.1332 70.4039 19.0053 70.5L18.7676 70.6827L17.9109 70.087C17.4319 69.7561 16.8885 69.3875 16.695 69.2551C16.1055 68.8486 13.7443 66.7169 12.941 65.8632C12.5254 65.4078 11.8599 64.6103 11.4712 64.0878C11.0734 63.5653 10.546 62.8718 10.2871 62.5584C9.19552 61.1904 8.2971 59.9354 8.29591 59.7729C8.29547 59.7155 8.56746 59.3022 8.91253 58.8405C9.24858 58.3882 9.62059 57.8208 9.74738 57.5901C9.8742 57.3593 10.2007 56.8206 10.4821 56.3779C10.7636 55.9351 11.1721 55.2611 11.3898 54.8664C11.6349 54.4331 11.8716 54.1244 12.0182 54.0656C12.1464 54.007 12.412 53.8801 12.6227 53.7824C12.8334 53.6752 13.0259 53.5968 13.0626 53.5965C13.0902 53.5963 13.2919 53.5178 13.5118 53.4104C13.7226 53.3127 13.9976 53.1857 14.126 53.1366C14.1988 53.1048 14.2513 53.0869 14.2939 53.0869ZM28.7079 0.514374C28.2546 0.514374 27.8857 0.548191 27.6991 0.615193C27.4944 0.696938 27.0942 0.821066 26.8149 0.894247C26.5357 0.967379 26.1357 1.11101 25.9311 1.20251C25.7266 1.3038 25.3268 1.45718 25.0385 1.55003C24.5271 1.71498 24.1654 2.0243 23.9441 2.47811C23.8888 2.60621 23.6663 2.79571 23.4622 2.91646C22.5806 3.40011 21.1759 5.192 20.6251 6.51957C20.1387 7.68907 20.0396 8.27626 19.9772 10.5503C19.9229 12.5884 19.9052 12.7446 19.6758 13.2351C19.5474 13.5195 19.4017 14.028 19.3571 14.3597C19.3125 14.6914 19.2126 15.0823 19.1393 15.2391C18.9283 15.6703 18.7942 16.5674 18.7461 17.9589C18.6897 19.4956 18.7368 19.6407 19.7057 20.6576C20.2181 21.1947 20.46 21.376 20.7197 21.4211C20.8143 21.4397 20.9065 21.4488 20.9955 21.4488C21.2991 21.4488 21.5658 21.3428 21.7655 21.1448C21.8593 21.053 21.9666 20.9889 22.0198 20.9889C22.0294 20.9889 22.0372 20.991 22.0429 20.9954C22.0894 21.0239 22.1372 21.3148 22.148 21.6353C22.1693 22.2178 22.461 23.1172 22.8066 23.6758C22.9186 23.8588 22.9674 24.3824 23.0493 26.031C23.1733 28.7929 23.1124 29.627 22.7448 30.2126C22.4418 30.7102 21.9807 31.0546 21.6291 31.0588C21.1758 31.0642 20.5765 31.4294 20.3565 31.8191C20.2466 32.0236 19.9157 32.3952 19.6305 32.65C19.3176 32.9148 19.0238 33.2857 18.905 33.5288C18.6768 34.0341 18.2625 34.2902 17.6436 34.2973C17.422 34.2998 16.9794 34.4111 16.6662 34.55C16.3532 34.6888 16.0584 34.7984 16.0122 34.799C15.9569 34.7996 15.7822 34.9078 15.6169 35.0449C15.4516 35.182 15.2584 35.2904 15.1846 35.2913C15.1108 35.2921 14.6784 35.4998 14.228 35.7558C13.649 36.0809 13.2259 36.2497 12.7287 36.3421C11.2557 36.6094 11.2101 36.6774 11.2424 38.6924L11.271 40.1859L10.915 40.6327C10.7142 40.8853 10.4959 41.2728 10.4239 41.495C10.2706 41.949 10.0886 42.2493 9.46883 43.0641C9.25016 43.3549 8.81454 44.1576 8.49784 44.8531C8.19037 45.5386 7.84603 46.1954 7.73656 46.3021C7.61792 46.409 7.39057 46.7185 7.22733 46.9986C7.05487 47.2692 6.87316 47.5303 6.81828 47.5596C6.58989 47.7153 6.1914 48.4295 6.19341 48.6886C6.19641 49.0724 5.98823 49.4485 5.65964 49.6818C5.50448 49.7887 5.33181 50.0013 5.26888 50.1649C5.21507 50.3189 4.9975 50.6469 4.79761 50.8884C4.5886 51.1299 4.26212 51.5834 4.0629 51.8918C3.8638 52.2097 3.62823 52.5472 3.54651 52.6437C3.45565 52.7403 3.38328 52.8558 3.38367 52.9037C3.38407 52.9516 3.21219 53.2213 3.00382 53.5103C2.1341 54.6665 0.776214 57.4991 0.593184 58.5327C0.541072 58.8484 0.453322 59.2694 0.400132 59.4608C0.329357 59.7288 0.331817 60.0057 0.428148 60.5588C0.630465 61.7218 0.751839 62.0072 1.47339 62.9656C1.88036 63.5065 5.08078 66.7646 6.16795 67.7487C6.34295 67.9001 6.89582 68.4111 7.40262 68.8843C7.90936 69.348 8.47097 69.8113 8.65469 69.9055C8.83847 70.0091 9.07787 70.2077 9.18879 70.3594C9.2997 70.5111 9.52072 70.7002 9.68608 70.785C9.84226 70.8698 10.0446 71.0019 10.1183 71.0681C10.192 71.1438 10.6892 71.5504 11.223 71.9758C11.7569 72.3916 12.4199 72.9591 12.6964 73.2336C12.9821 73.5081 13.3042 73.7633 13.4144 73.8007C13.5336 73.8286 13.8466 74.0839 14.1048 74.3585C14.9252 75.1916 15.5142 75.6642 16.5164 76.2774C17.4149 76.829 18.3943 77.1239 19.2897 77.1239C19.5124 77.1239 19.7299 77.1057 19.9396 77.0686C20.1106 77.0375 20.2209 77.0203 20.2919 77.0203C20.3995 77.0203 20.4164 77.0601 20.4169 77.1519C20.4174 77.2471 20.3812 77.3424 20.3356 77.3807C20.2076 77.4574 19.8174 78.23 19.7457 78.5347C19.7098 78.6775 19.6481 79.1438 19.6046 79.5624C19.5518 79.9809 19.4714 80.3519 19.4074 80.3902C19.3161 80.4477 19.2909 80.8659 19.2877 81.9679C19.2922 82.7942 19.2606 83.7247 19.2257 84.038C19.147 84.7216 19.3052 85.2048 19.7189 85.5163C19.8659 85.6296 20.1147 85.9227 20.2808 86.1782C20.5301 86.5851 20.5768 86.7556 20.6544 87.6087C20.6938 88.1489 20.826 88.9256 20.9379 89.3422C21.1244 90.0236 21.1342 90.1562 21.0365 90.7342C20.9302 91.4163 20.9493 91.5677 21.2545 92.2295C21.4302 92.5887 21.4586 92.7873 21.435 93.5538C21.4196 94.1214 21.4584 94.5658 21.5233 94.7359C21.5881 94.8965 21.674 95.6148 21.7141 96.3426C21.8051 98.0903 21.9701 100.044 22.1414 101.441C22.2176 102.063 22.2841 102.601 22.2843 102.629C22.2845 102.667 22.3949 102.836 22.5235 102.996C22.7347 103.251 22.7626 103.336 22.7003 103.685C22.5492 104.524 22.6608 106.841 22.9231 108.262C22.9981 108.695 23.1837 109.353 23.3314 109.72C23.5992 110.407 23.6184 110.614 23.6095 112.625C23.6111 112.973 23.6872 113.65 23.7806 114.129C23.9392 114.917 23.9597 115.406 23.9511 119.496C23.9443 121.969 23.9735 124.365 24.0212 124.833C24.1169 125.881 24.4534 127.864 24.7034 128.855C25.2126 130.901 25.2312 131.013 25.4082 131.985C25.464 132.265 25.5472 132.601 25.6023 132.732C25.7034 132.974 26.0462 134.514 26.1767 135.298C26.3072 136.081 26.8987 138.534 27.0917 139.074C27.2846 139.615 27.3783 140.323 27.6067 142.984C27.6828 143.877 27.7678 144.713 27.7954 144.825C27.8231 144.946 27.8056 145.104 27.7424 145.178C27.6791 145.252 27.6617 145.447 27.6897 145.633C27.7291 145.877 27.7222 145.934 27.6144 145.934C27.5949 145.934 27.5721 145.932 27.5457 145.929C27.534 145.928 27.5226 145.927 27.5115 145.927C27.3758 145.927 27.2777 146.042 27.1031 146.41C26.9591 146.697 26.8518 147.067 26.8526 147.262C26.8534 147.457 26.8178 147.633 26.7726 147.661C26.6008 147.771 26.4862 148.559 26.5963 148.894C26.679 149.145 26.672 149.655 26.5961 151.035C26.5116 152.517 26.45 152.952 26.28 153.451C26.0026 154.236 26.0038 154.523 26.2853 154.719C26.4124 154.794 26.5217 154.952 26.5403 155.054C26.5588 155.165 26.7499 155.389 26.9769 155.547C27.3493 155.818 27.3857 155.883 27.4327 156.3C27.4893 156.874 27.9268 157.616 28.253 157.683C28.3799 157.712 28.6429 157.825 28.8335 157.937C29.2691 158.171 30.5377 158.291 33.783 158.388C34.2618 158.401 34.6987 158.408 35.0986 158.408C36.5326 158.408 37.4903 158.318 38.1928 158.113C38.5831 158.005 38.6738 157.941 38.7279 157.728C38.7549 157.589 38.8545 157.405 38.9361 157.313C39.2988 156.908 39.1312 154.664 38.6659 153.705C38.529 153.417 38.3738 153.101 38.3282 153.008C38.2826 152.915 38.1913 152.738 38.1274 152.607C38.0544 152.477 37.8811 152.142 37.735 151.863C37.589 151.583 37.4339 151.304 37.3974 151.257C37.2607 151.08 37.0318 150.327 37.0312 150.048C37.0308 149.89 36.9482 149.519 36.8475 149.23C36.7469 148.932 36.618 148.244 36.5622 147.696C36.4596 146.561 36.2483 145.695 36.0296 145.508C35.9476 145.443 35.6925 145.311 35.4558 145.217C34.9733 145.038 34.6539 144.599 34.6435 144.106C34.633 143.576 34.3307 142.783 34.1305 142.754C33.9667 142.726 33.9392 142.632 33.9013 142.092C33.8729 141.692 33.7717 141.282 33.6344 141.002C33.5154 140.75 33.3869 140.33 33.3407 140.079C33.2944 139.818 33.2017 136.07 33.1436 131.728C33.0854 127.38 33.028 123.334 33.0172 122.743C33.0052 121.749 33.023 121.599 33.2855 120.821C33.6931 119.62 33.9292 119.104 34.1208 119.001C34.285 118.908 35.3168 118.552 36.7786 118.093C37.5098 117.859 38.3784 117.559 39.2015 117.24C39.7778 117.024 41.2784 116.123 41.5345 115.85C41.6626 115.709 41.9555 115.455 42.1844 115.276C42.5324 115.013 42.6239 114.89 42.6694 114.58C42.7422 114.099 42.5116 112.903 42.2082 112.224C42.0519 111.876 41.9505 111.414 41.8947 110.81C41.8482 110.32 41.746 109.32 41.6625 108.594C41.1608 104.118 41.0951 103.069 41.2681 102.009C41.3956 101.233 41.4043 100.855 41.3197 99.454C41.2725 98.5546 41.1698 97.418 41.0956 96.9255C41.0213 96.4328 40.984 95.9969 41.0115 95.9494C41.0149 95.9435 41.0204 95.9407 41.0278 95.9407C41.0801 95.9407 41.2253 96.0815 41.3705 96.2804C41.5363 96.5075 41.7849 96.7629 41.9138 96.8479C42.0426 96.933 42.3833 97.3113 42.678 97.6898C42.9635 98.0682 43.3318 98.5318 43.4884 98.721C43.6357 98.9007 43.8659 99.1845 43.9856 99.3358C44.1053 99.4871 44.4459 99.8843 44.7313 100.225C45.0166 100.565 45.3296 100.953 45.4309 101.085C46.7837 102.957 47.345 103.629 47.5475 103.629H47.5476C47.6213 103.629 48.0445 103.997 48.4953 104.451C49.0933 105.065 49.4154 105.32 49.7098 105.415C50.0554 105.528 50.8854 105.599 51.5753 105.599C51.9141 105.599 52.219 105.582 52.4162 105.545L52.8768 105.459L52.8838 108.391C52.8819 110.763 52.909 111.433 53.0283 111.849C53.3585 113.038 53.669 115.566 53.8227 118.309C53.8679 119.081 53.9499 119.844 54.0049 119.985C54.1791 120.437 54.1235 120.813 53.866 121.105C53.6545 121.321 53.6084 121.462 53.5712 122.045C53.5432 122.515 53.5796 122.891 53.6711 123.23C53.781 123.588 53.79 123.794 53.7347 123.963C53.6795 124.095 53.6425 124.386 53.6423 124.621C53.642 124.977 53.6146 125.034 53.4598 125.034H53.4579C53.3204 125.034 53.2195 125.156 53.0817 125.475C52.9162 125.869 52.8884 126.132 52.8782 127.475C52.8775 128.479 52.9045 129.117 52.9777 129.286C53.0418 129.436 53.1147 130.046 53.1417 130.646C53.1687 131.246 53.2323 131.865 53.2872 132.024C53.3329 132.174 53.4058 132.699 53.4512 133.168C53.5419 134.254 53.7888 134.845 54.1919 134.931C54.3385 134.969 54.4575 135.035 54.4575 135.091C54.4574 135.147 54.0905 135.576 53.6502 136.052C51.9548 137.851 50.865 139.762 50.3431 141.832C49.6936 144.441 49.7934 147.87 50.5688 149.94C51.2983 151.852 52.4199 153.709 53.6511 155.008C54.5539 155.971 56.0772 157.161 57.0627 157.697C57.3183 157.838 57.5372 158.007 57.5371 158.081C57.537 158.146 57.7559 158.333 58.0114 158.493C58.422 158.728 58.5864 158.766 59.1163 158.77C59.1381 158.77 59.1599 158.769 59.1816 158.769C59.504 158.769 59.797 158.816 59.8654 158.877C59.9192 158.919 59.983 158.945 60.0311 158.945C60.0483 158.945 60.0634 158.942 60.0755 158.935C60.0815 158.932 60.0946 158.93 60.1138 158.93C60.2117 158.93 60.4675 158.968 60.7425 159.032C61.3292 159.183 63.323 159.273 65.0444 159.273C66.0575 159.273 66.9762 159.242 67.4582 159.173C68.769 158.978 69.4853 158.592 69.2393 158.19C69.1118 157.985 69.121 157.966 69.8008 157.599C70.775 157.066 72.2663 155.902 73.0594 155.06C74.6842 153.318 75.5831 151.821 76.1632 149.863C76.9593 147.195 76.995 143.892 76.2521 141.482C75.9439 140.496 74.9949 138.626 74.2811 137.601C73.2011 136.049 71.4393 134.419 69.822 133.484C69.4637 133.276 69.1606 133.078 69.1607 133.041C69.1608 133.012 69.4561 132.844 69.816 132.676C70.1666 132.509 70.5638 132.256 70.6842 132.106C71.138 131.563 71.1873 130.773 70.8209 130.227C70.72 130.095 70.6469 129.935 70.6471 129.888C70.6477 129.747 69.2708 128.314 69.0133 128.172C68.8937 128.115 68.59 128.002 68.3415 127.926C68.0837 127.85 67.6881 127.68 67.4583 127.547C67.2284 127.425 66.9616 127.32 66.8787 127.32C66.676 127.32 65.5274 126.489 65.2063 126.112C65.0686 125.952 64.7561 125.744 64.4985 125.659C64.2226 125.555 63.9929 125.395 63.9105 125.244C63.7363 124.952 63.1395 124.348 62.4873 123.811C62.2117 123.584 61.8994 123.33 61.7892 123.235C61.6789 123.141 61.4215 123.009 61.2284 122.942C60.9801 122.848 60.8515 122.744 60.815 122.593C60.6691 122.009 60.83 120.032 61.2413 117.373C61.3254 116.855 61.4098 116.241 61.438 116.005C61.504 115.401 61.654 114.306 61.804 113.314C62.5072 108.766 62.845 103.137 62.5455 101.003C62.4911 100.585 62.3922 99.5031 62.339 98.5913C62.2858 97.6792 62.1864 96.7099 62.1131 96.4249C62.0398 96.1398 61.9852 95.7881 61.9856 95.6359C61.9862 95.3697 61.7936 94.6567 61.6187 94.2576C61.4622 93.9154 61.3244 93.5066 61.1961 92.974C61.1227 92.6886 60.8833 92.1275 60.6621 91.7378C60.4408 91.3481 60.2288 90.9201 60.1921 90.7869C60.1553 90.6537 60.0079 90.3493 59.8696 90.1116C59.7312 89.8739 59.5838 89.5027 59.5565 89.2932C59.5199 89.0837 59.308 88.5411 59.0775 88.0749C58.8562 87.618 58.6719 87.1515 58.6721 87.0371C58.6636 86.6271 58.3128 86.0656 57.7212 85.5241C57.2313 85.0776 57.0927 84.8969 57.0561 84.6203C56.9552 83.9814 56.7336 83.5909 56.3544 83.373C56.1601 83.2592 55.9474 83.0882 55.8827 82.9931C55.8181 82.8979 55.4021 82.4223 54.9584 81.9277C54.5054 81.4332 54.1448 80.9955 54.1449 80.9573C54.1451 80.7376 53.2761 79.5284 52.9893 79.3577C52.8136 79.2439 52.6656 79.1013 52.6657 79.0249C52.6657 78.9398 52.5571 78.8926 52.3399 78.8926C52.3375 78.8926 52.335 78.8927 52.3326 78.8927C52.3312 78.8927 52.3298 78.8927 52.3284 78.8927C51.9805 78.8927 51.9268 78.6841 52.2587 78.6159C52.6105 78.5473 52.8421 78.183 52.9908 77.4462C53.028 77.2643 53.1949 76.9861 53.371 76.8227C53.6027 76.6015 53.6862 76.4289 53.6957 76.1992C53.7242 75.4145 53.641 75.2044 53.2428 75.0534C53.1317 75.0062 52.9743 74.8252 52.9004 74.6438C52.8264 74.4623 52.6321 74.2145 52.4655 74.1005C52.308 73.977 52.0303 73.72 51.8545 73.52C51.6786 73.3199 51.3824 73.0631 51.1972 72.9492C50.0769 72.2471 50.0213 72.1708 50.3086 71.5945C50.4847 71.239 50.4849 70.5684 50.309 70.1287C50.1516 69.7463 50.1795 69.5256 50.3926 69.5243C50.6891 69.5225 51.0784 69.0407 51.1899 68.5318C51.2549 68.2628 51.3571 67.9265 51.422 67.7918C51.5519 67.5223 51.617 67.1957 51.7474 66.1391C51.8406 65.3705 51.7943 65.1211 51.3313 63.5682C51.1924 63.1176 51.1649 62.3585 51.1016 58.3769C51.0292 54.0521 51.0015 53.6088 50.7975 52.405C50.6676 51.6922 50.5005 50.8735 50.4076 50.604C50.2497 50.1132 50.259 50.0745 50.4172 49.7351C50.9571 48.5712 51.0692 47.488 50.7345 46.7953C50.6229 46.5837 50.3067 46.1904 50.009 45.9129C49.1811 45.1377 48.7997 44.6773 48.7346 44.4265C48.6694 44.137 48.3252 43.6471 47.7762 43.0624C47.5622 42.8227 47.3668 42.5441 47.3388 42.4379C47.3109 42.3318 47.1432 41.5882 46.9662 40.7962C46.379 38.2162 45.8662 36.4286 45.5774 35.9664C45.5121 35.8605 45.4282 35.648 45.3909 35.4933C45.3535 35.3482 45.251 35.039 45.1577 34.8169C45.0645 34.6046 44.9152 34.2182 44.822 33.9573C44.7381 33.7062 44.6357 33.5038 44.589 33.5038H44.5886C44.5513 33.5038 44.4956 33.4173 44.4677 33.3209C44.3849 32.9779 43.8692 32.7433 43.2315 32.7433C43.2214 32.7433 43.2113 32.7434 43.2011 32.7435C43.1762 32.7438 43.152 32.744 43.1286 32.744C42.6882 32.744 42.4958 32.6885 42.0095 32.4177C41.6743 32.2372 41.2274 32.0581 41.0227 32.0314C40.8087 31.995 40.5947 31.9394 40.5388 31.9012C40.3712 31.777 39.8223 31.7058 38.6319 31.6326C37.8509 31.5932 37.3674 31.5213 37.172 31.4169C37.0045 31.3219 36.7163 31.2283 36.521 31.2015C36.1028 31.1386 35.3027 30.7018 34.7256 30.2139C34.4928 30.0227 34.2323 29.8415 34.13 29.8039C33.9719 29.7476 33.9625 29.6701 34.0243 28.5047C34.0947 27.0181 34.2766 25.5293 34.4243 25.129C34.489 24.9726 34.6371 24.6985 34.7575 24.5317C35.0263 24.1587 35.4519 23.2389 35.4514 23.0249C35.451 22.8625 35.4777 22.796 35.6152 22.796C35.6918 22.796 35.8028 22.8166 35.9627 22.8528C36.0784 22.8786 36.1934 22.8913 36.3068 22.8913C36.96 22.8913 37.5582 22.4716 37.9058 21.737C38.0635 21.4136 38.1373 21.0425 38.1734 20.4089C38.2004 19.9213 38.3385 19.0716 38.4772 18.5043C38.727 17.4867 38.727 17.4673 38.5674 16.8452C38.4358 16.2909 38.4262 16.1545 38.5375 15.8211C38.6395 15.5171 38.6657 14.5503 38.6697 11.6196L38.6814 7.80495L38.4182 6.86923C38.155 5.97248 37.7612 5.23428 37.1433 4.5093C37.0123 4.35458 36.8998 4.18982 36.8997 4.15058C36.8997 4.1114 36.5721 3.80309 36.1791 3.46637C35.1405 2.60101 34.2707 1.99762 33.6258 1.70418C33.4482 1.61882 33.1304 1.47697 32.9248 1.3823C32.3173 1.09811 31.1032 0.745515 30.4499 0.648455C29.857 0.55876 29.2271 0.514374 28.7079 0.514374Z" fill="#E5E5E5"/>
</svg>
