<svg width="108" height="108" viewBox="0 0 108 108" fill="none" xmlns="http://www.w3.org/2000/svg">
<g clip-path="url(#clip0)">
<path d="M78.4993 10.3737C81.0999 10.1255 83.8481 11.1971 85.4795 13.2655C86.6243 14.554 87.1242 16.2712 87.3174 17.951C87.2183 19.9175 86.5202 21.9116 85.1154 23.3304C82.9913 25.6685 79.3572 26.4588 76.4395 25.267C72.4643 23.8959 70.1194 18.8201 72.0966 14.9978C73.1958 12.4259 75.7554 10.7026 78.4993 10.3737V10.3737Z" fill="#C5EDFD"/>
<path d="M60.1129 14.764C62.2017 16.8327 64.5196 18.7124 66.2004 21.1396C66.8222 22.3408 67.112 23.9354 66.354 25.4763C65.6136 26.853 63.8453 27.2306 62.6334 27.0723C60.8707 26.517 59.7709 25.0962 58.6852 23.7978C56.2016 20.9665 54.1856 17.7572 52.2571 14.5058C49.0169 9.73818 46.0532 4.77093 43.0271 -0.148306C42.7878 -0.496617 42.6302 -0.89947 42.5182 -1.32181C45.1984 0.230456 47.1867 2.57147 49.464 4.56654C52.8005 8.16459 56.4847 11.4407 60.1129 14.764Z" fill="#C5EDFD"/>
<path d="M83.049 31.2679C83.5536 29.4828 85.6827 28.9072 87.3331 29.0483C90.4709 30.4215 92.4729 33.4556 93.3922 36.6602C93.9994 39.0586 95.3791 41.2742 95.3281 43.8142C95.2789 45.1554 95.1457 46.5591 94.5126 47.7646C92.86 50.153 90.1093 51.3991 87.4358 52.2785C83.5439 53.4657 79.4641 53.7917 75.4271 54.0898C74.6249 54.1254 73.7886 54.2453 73.0229 53.9329C73.9354 52.9346 75.2885 52.5733 76.494 52.0591C78.2924 51.3147 80.169 50.7703 81.9462 49.9731C84.5508 48.5798 87.0411 46.9746 89.4105 45.2096C88.9771 42.8069 87.2943 40.9496 85.9656 38.9958C84.4258 36.7248 82.6325 34.1558 83.049 31.2679V31.2679Z" fill="#C5EDFD"/>
<path d="M56.6085 45.1963C57.6445 45.0434 58.5437 45.7077 59.4594 46.0786C60.3148 46.3318 60.4936 47.3337 60.4631 48.1079C60.2627 50.0144 59.412 51.7941 58.3351 53.358C55.1445 58.1807 50.9771 62.2489 46.7114 66.1103C45.3583 67.281 43.4321 68.0182 41.6829 67.3076C40.3783 67.0031 39.6023 65.5903 39.8238 64.308C40.2336 62.1193 41.3457 60.1374 42.5666 58.3038C44.6246 55.6084 46.5221 52.7755 48.8811 50.3257C50.9753 48.0562 53.3971 45.6183 56.6085 45.1963Z" fill="#C5EDFD"/>
<path d="M62.882 52.9313C64.6929 51.9463 67.0131 51.5822 68.8308 52.7493C69.9958 53.883 70.2076 55.6885 69.7214 57.1881C68.6581 60.7371 66.394 63.7575 64.1363 66.635C60.8319 70.8425 56.894 74.4741 53.0961 78.2206C48.5356 82.5172 44.2781 87.1417 39.4629 91.1615C36.9977 93.2464 34.6664 95.4901 32.5739 97.9514C32.2382 98.388 31.7132 98.5715 31.2054 98.7223C29.565 98.7223 32.9934 95.2452 33.9173 93.529C40.7535 82.904 47.2098 72.0261 54.5275 61.7189C57.001 58.5405 59.1524 54.7994 62.882 52.9313Z" fill="#C5EDFD"/>
<path d="M62.882 52.9313C64.6929 51.9463 67.013 51.5822 68.8308 52.7493C69.9957 53.883 70.2076 55.6885 69.7214 57.1881C68.6581 60.7371 66.394 63.7575 64.1363 66.635C60.8319 70.8425 56.894 74.4741 53.0961 78.2206C48.5356 82.5172 44.2781 87.1417 39.4629 91.1615C36.9977 93.2464 34.6664 95.4901 32.5739 97.9514C32.2382 98.388 31.7132 98.5715 31.2054 98.7223C29.9699 98.7223 33.9173 93.529 33.9173 93.529C40.7535 82.904 47.2098 72.0261 54.5275 61.7189C57.001 58.5405 59.1523 54.7994 62.882 52.9313Z" fill="#C5EDFD"/>
<path d="M20.3045 82.9385C24.8586 82.9385 28.5505 86.6304 28.5505 91.1845C28.5505 95.7386 24.8586 99.4305 20.3045 99.4305C15.7504 99.4305 12.0585 95.7386 12.0585 91.1845C12.0585 86.6304 15.7504 82.9385 20.3045 82.9385ZM20.3045 85.0931C16.9455 85.0931 14.2131 87.8255 14.2131 91.1845C14.2131 94.5435 16.9455 97.2759 20.3045 97.2759C23.6635 97.2759 26.3959 94.5435 26.3959 91.1845C26.3959 87.8255 23.6635 85.0931 20.3045 85.0931Z" fill="#C5EDFD"/>
</g>
<defs>
<clipPath id="clip0">
<rect width="107.73" height="107.73" fill="white"/>
</clipPath>
</defs>
</svg>
